# xmcd
#
# Track frame offsets:
#	150
#	12653
#	26994
#	39615
#	52223
#	64215
#	75914
#	92034
#	107006
#	120268
#	133857
#	147077
#	160262
#	172264
#	185379
#	197413
#	210977
#	223660
#	236117
#	247890
#	259493
#	271406
#	283560
#	295826
#	307809
#
# Disc length: 4272 seconds
# Revision: 4
# Processed by: cddbd v1.5.2PL0 Copyright (c) Steve Scherf et al.
# Submitted via: dBpowerAMP V12.0
#
DISCID=7410ae19
DTITLE=Various Artist - Western Swing and Country Jazz [CD1 of 4)
DYEAR=2005
DGENRE=Country
TTITLE0=Ocie Stockard and The Wanderers - There'll Be Some Changes Made
TTITLE1=Ocie Stockard and The Wanderers - Ain't Nobody Truck Like You
TTITLE2=Ocie Stockard and The Wanderers - Long Ago
TTITLE3=Ocie Stockard and The Wanderers - What's the Matter
TTITLE4=Ocie Stockard and The Wanderers - Same Thing All the Time
TTITLE5=Ocie Stockard and The Wanderers - One of Us Was Wrong
TTITLE6=Ocie Stockard and The Wanderers - Black and Blue
TTITLE7=Ocie Stockard and The Wanderers - How Come (You Do Me Like You Do Do Do)
TTITLE8=Ocie Stockard and The Wanderers - When I Get Low I Get High
TTITLE9=Ocie Stockard and The Wanderers - Just Blues
TTITLE10=Ocie Stockard and The Wanderers - Why Shouldn't I?
TTITLE11=Ocie Stockard and The Wanderers - (Bring It on Down) To My House
TTITLE12=Ocie Stockard and The Wanderers - Turn Your Lights Down Low
TTITLE13=Ocie Stockard and The Wanderers - Wabash Blues
TTITLE14=The Range Riders - The Range Rider's Stomp
TTITLE15=The Range Riders - No Foolin'
TTITLE16=The Range Riders - Vote for Mr. Rhythm
TTITLE17=The Range Riders - It Don't Mean a Thing
TTITLE18=The Range Riders - How Come You Do Me Like You Do
TTITLE19=The Range Riders - Five Foot Two, Eyes of Blue
TTITLE20=Bob Dunn's Vagabonds - Stompin' at the Honky Tonk
TTITLE21=Bob Dunn's Vagabonds - Wednesday Rag
TTITLE22=Bob Dunn's Vagabonds - Graveyard Blues
TTITLE23=Bob Dunn's Vagabonds - Juke Box Rag
TTITLE24=Bob Dunn's Vagabonds - You Don't Know My Mind
EXTD=
EXTT0=
EXTT1=
EXTT2=
EXTT3=
EXTT4=
EXTT5=
EXTT6=
EXTT7=
EXTT8=
EXTT9=
EXTT10=
EXTT11=
EXTT12=
EXTT13=
EXTT14=
EXTT15=
EXTT16=
EXTT17=
EXTT18=
EXTT19=
EXTT20=
EXTT21=
EXTT22=
EXTT23=
EXTT24=
PLAYORDER=
